<svg width="193" height="34" viewBox="0 0 193 34" fill="none" xmlns="http://www.w3.org/2000/svg">
<path d="M30.8281 0.612305C30.6816 0.700195 30.5645 1.02246 30.4766 1.5791C30.418 2.10645 30.374 2.69238 30.3447 3.33691C30.3447 3.95215 30.3447 4.55273 30.3447 5.13867C30.3447 5.72461 30.3447 6.10547 30.3447 6.28125C30.3447 8.6543 30.3594 11.042 30.3887 13.4443C30.418 15.8174 30.4326 18.1904 30.4326 20.5635C30.4326 23.083 29.9199 25.1777 28.8945 26.8477C27.8984 28.5176 26.5801 29.8506 24.9395 30.8467C23.2988 31.8135 21.4385 32.502 19.3584 32.9121C17.2783 33.3223 15.1689 33.5273 13.0303 33.5273C11.624 33.5273 10.1592 33.3955 8.63574 33.1318C7.1123 32.8682 5.7207 32.4141 4.46094 31.7695C3.23047 31.0957 2.21973 30.2021 1.42871 29.0889C0.608398 27.9463 0.198242 26.5107 0.198242 24.7822C0.198242 24.2256 0.256836 23.6543 0.374023 23.0684C0.491211 22.4824 0.696289 21.9404 0.989258 21.4424L7.40527 22.4971C6.90723 23.3467 6.6582 24.2549 6.6582 25.2217C6.6582 26.2471 6.89258 27.0967 7.36133 27.7705C7.85938 28.4443 8.48926 28.9863 9.25098 29.3965C10.0127 29.7773 10.833 30.0557 11.7119 30.2314C12.6201 30.3779 13.499 30.4512 14.3486 30.4512C17.3662 30.4512 19.6514 29.748 21.2041 28.3418C22.7568 26.9355 23.5332 24.6943 23.5332 21.6182V16.2129C23.5332 16.0078 23.5332 15.4951 23.5332 14.6748C23.5625 13.8545 23.5771 12.8877 23.5771 11.7744C23.5771 10.6318 23.5625 9.43066 23.5332 8.1709C23.5332 6.91113 23.5039 5.73926 23.4453 4.65527C23.416 3.57129 23.3428 2.66309 23.2256 1.93066C23.1377 1.16895 23.0205 0.729492 22.874 0.612305H30.8281ZM47.0879 33.6592C45.6523 33.6592 44.1289 33.4688 42.5176 33.0879C40.9062 32.707 39.4121 32.1211 38.0352 31.3301C36.6875 30.5098 35.5596 29.4844 34.6514 28.2539C33.7725 27.0234 33.333 25.5586 33.333 23.8594C33.333 21.7793 33.7432 19.9189 34.5635 18.2783C35.3838 16.6377 36.4824 15.2607 37.8594 14.1475C39.2363 13.0049 40.833 12.1406 42.6494 11.5547C44.4658 10.9395 46.3701 10.6318 48.3623 10.6318C49.9443 10.6318 51.3506 10.8955 52.5811 11.4229C53.8115 11.9209 54.8369 12.6387 55.6572 13.5762C56.4775 14.4844 57.0928 15.5684 57.5029 16.8281C57.9424 18.0879 58.1621 19.4795 58.1621 21.0029C58.1621 22.4678 57.9424 23.874 57.5029 25.2217H39.1777C39.4707 26.1006 39.9248 26.8184 40.54 27.375C41.1846 27.9316 41.9023 28.3711 42.6934 28.6934C43.5137 28.9863 44.3633 29.1914 45.2422 29.3086C46.1504 29.4258 47 29.4844 47.791 29.4844C48.2891 29.4844 48.9482 29.4551 49.7686 29.3965C50.6182 29.3086 51.4824 29.1914 52.3613 29.0449C53.2402 28.8691 54.0605 28.6641 54.8223 28.4297C55.6133 28.1953 56.1992 27.9023 56.5801 27.5508L58.7334 31.3301C56.7998 32.0625 54.8955 32.6338 53.0205 33.0439C51.1455 33.4541 49.168 33.6592 47.0879 33.6592ZM47.0879 14.7627C46.209 14.7627 45.3301 14.9385 44.4512 15.29C43.6016 15.6416 42.8252 16.1104 42.1221 16.6963C41.4189 17.2529 40.8037 17.9268 40.2764 18.7178C39.749 19.4795 39.3682 20.2705 39.1338 21.0908H51.7021C51.79 20.2119 51.79 19.3916 51.7021 18.6299C51.6436 17.8389 51.4531 17.165 51.1309 16.6084C50.8086 16.0225 50.3252 15.5684 49.6807 15.2461C49.0361 14.9238 48.1719 14.7627 47.0879 14.7627ZM68.8408 16.3008C69.5439 15.7148 70.3496 15.1582 71.2578 14.6309C72.1953 14.1035 73.1621 13.6494 74.1582 13.2686C75.1836 12.8584 76.209 12.5361 77.2344 12.3018C78.2891 12.0674 79.2705 11.9502 80.1787 11.9502V15.7295C79.2412 15.7295 78.2012 15.9346 77.0586 16.3447C75.916 16.7549 74.7881 17.2822 73.6748 17.9268C72.5908 18.5713 71.6094 19.3037 70.7305 20.124C69.8516 20.9443 69.207 21.7793 68.7969 22.6289C68.7969 22.834 68.7969 23.2148 68.7969 23.7715C68.8262 24.3281 68.8408 24.9727 68.8408 25.7051C68.8701 26.4375 68.8994 27.2139 68.9287 28.0342C68.958 28.8252 69.002 29.5723 69.0605 30.2754C69.1191 30.9785 69.1777 31.5791 69.2363 32.0771C69.2949 32.5752 69.3682 32.8828 69.4561 33H62.3369C62.4541 32.9414 62.5566 32.6338 62.6445 32.0771C62.7324 31.4912 62.791 30.7881 62.8203 29.9678C62.8789 29.1475 62.9229 28.2686 62.9521 27.3311C63.0107 26.3643 63.04 25.4414 63.04 24.5625C63.0693 23.6836 63.084 22.9219 63.084 22.2773C63.084 21.6328 63.084 21.208 63.084 21.0029C63.084 20.7393 63.084 20.1826 63.084 19.333C63.084 18.4834 63.0693 17.5898 63.04 16.6523C63.0107 15.7148 62.9668 14.8506 62.9082 14.0596C62.8496 13.2393 62.7617 12.7412 62.6445 12.5654H69.1484C69.0898 12.7412 69.0459 13.0049 69.0166 13.3564C68.9873 13.6787 68.958 14.0303 68.9287 14.4111C68.8994 14.792 68.8701 15.1582 68.8408 15.5098C68.8408 15.8613 68.8408 16.125 68.8408 16.3008ZM99.3828 20.0361C99.5586 19.5381 99.7051 19.0254 99.8223 18.498C99.9395 17.9414 99.998 17.3848 99.998 16.8281C99.998 15.5977 99.6611 14.6895 98.9873 14.1035C98.3428 13.4883 97.4053 13.1807 96.1748 13.1807C95.4717 13.1807 94.6367 13.2686 93.6699 13.4443C92.7324 13.5908 91.8389 13.8545 90.9893 14.2354C90.1396 14.6162 89.4072 15.1143 88.792 15.7295C88.2061 16.3447 87.9131 17.1064 87.9131 18.0146C87.9131 18.6885 88.2354 19.2598 88.8799 19.7285C89.5537 20.168 90.3301 20.5342 91.209 20.8271C92.0879 21.0908 92.9668 21.2959 93.8457 21.4424C94.7539 21.5889 95.4424 21.7061 95.9111 21.7939C96.6436 21.9404 97.5664 22.1309 98.6797 22.3652C99.8223 22.5703 100.921 22.8926 101.976 23.332C103.03 23.7422 103.938 24.2695 104.7 24.9141C105.462 25.5293 105.843 26.3203 105.843 27.2871C105.843 28.3711 105.418 29.2793 104.568 30.0117C103.719 30.7441 102.693 31.3301 101.492 31.7695C100.32 32.209 99.0898 32.5312 97.8008 32.7363C96.5117 32.9121 95.4424 33 94.5928 33C92.835 33 91.0918 32.8828 89.3633 32.6484C87.6348 32.3848 85.9355 31.96 84.2656 31.374C84.0605 31.2861 83.7236 31.1543 83.2549 30.9785C82.7861 30.7734 82.2881 30.5684 81.7607 30.3633C81.2627 30.1289 80.7939 29.9238 80.3545 29.748C79.915 29.5723 79.6367 29.4844 79.5195 29.4844C79.5781 29.4551 79.7832 29.2793 80.1348 28.957C80.4863 28.6348 80.8525 28.2832 81.2334 27.9023C81.6436 27.4922 82.0098 27.1113 82.332 26.7598C82.6543 26.4082 82.8301 26.1885 82.8594 26.1006C84.3535 27.2139 86.0088 28.0342 87.8252 28.5615C89.6709 29.0889 91.5166 29.3525 93.3623 29.3525C93.5674 29.3525 93.9629 29.3379 94.5488 29.3086C95.1348 29.25 95.7354 29.1621 96.3506 29.0449C96.9951 28.9277 97.5664 28.7666 98.0645 28.5615C98.5625 28.3564 98.8115 28.0928 98.8115 27.7705C98.8115 27.3018 98.4014 26.9209 97.5811 26.6279C96.7607 26.335 95.7207 26.0566 94.4609 25.793C93.2305 25.5293 91.8975 25.2363 90.4619 24.9141C89.0264 24.5918 87.6787 24.1816 86.4189 23.6836C85.1885 23.1562 84.1631 22.5117 83.3428 21.75C82.5225 20.9883 82.1123 20.0068 82.1123 18.8057C82.1123 17.0479 82.5811 15.5537 83.5186 14.3232C84.4854 13.0635 85.6865 12.0527 87.1221 11.291C88.5576 10.5 90.1104 9.92871 91.7803 9.57715C93.4502 9.22559 95.0176 9.0498 96.4824 9.0498C97.6836 9.0498 98.8408 9.15234 99.9541 9.35742C101.067 9.5332 102.049 9.87012 102.898 10.3682C103.748 10.8662 104.422 11.5547 104.92 12.4336C105.447 13.3125 105.711 14.4551 105.711 15.8613C105.711 16.5645 105.652 17.2676 105.535 17.9707C105.447 18.6738 105.33 19.3623 105.184 20.0361H99.3828ZM140.208 15.0703C140.706 14.3965 141.189 13.6201 141.658 12.7412C142.156 11.833 142.405 10.9248 142.405 10.0166C142.405 8.99121 142.054 8.15625 141.351 7.51172C140.677 6.83789 139.856 6.31055 138.89 5.92969C137.923 5.54883 136.897 5.28516 135.813 5.13867C134.759 4.99219 133.836 4.91895 133.045 4.91895C131.141 4.91895 129.207 5.27051 127.244 5.97363C125.311 6.67676 123.553 7.6582 121.971 8.91797C120.389 10.1777 119.085 11.6719 118.06 13.4004C117.063 15.1289 116.565 17.0186 116.565 19.0693C116.565 20.2998 116.785 21.3838 117.225 22.3213C117.693 23.2588 118.309 24.0645 119.07 24.7383C119.861 25.4121 120.755 25.9834 121.751 26.4521C122.747 26.9209 123.787 27.2871 124.871 27.5508C125.984 27.8145 127.098 28.0049 128.211 28.1221C129.324 28.2393 130.364 28.2979 131.331 28.2979C133.733 28.2979 136.121 28.0928 138.494 27.6826C140.867 27.2725 143.226 26.7451 145.569 26.1006L147.283 30.6709C146.023 31.0811 144.69 31.4326 143.284 31.7256C141.907 32.0186 140.501 32.2529 139.065 32.4287C137.659 32.6045 136.238 32.7363 134.803 32.8242C133.396 32.9121 132.034 32.9561 130.716 32.9561C129.427 32.9561 127.977 32.8682 126.365 32.6924C124.783 32.5166 123.187 32.2383 121.575 31.8574C119.964 31.4473 118.382 30.9199 116.829 30.2754C115.306 29.6309 113.943 28.8252 112.742 27.8584C111.541 26.8916 110.574 25.7637 109.842 24.4746C109.139 23.1855 108.787 21.7061 108.787 20.0361C108.787 18.0146 109.168 16.125 109.93 14.3672C110.721 12.5801 111.761 10.9688 113.05 9.5332C114.339 8.06836 115.848 6.7793 117.576 5.66602C119.305 4.52344 121.121 3.57129 123.025 2.80957C124.93 2.01855 126.863 1.43262 128.826 1.05176C130.789 0.641602 132.679 0.436523 134.495 0.436523C136.194 0.436523 137.923 0.568359 139.681 0.832031C141.468 1.0957 143.079 1.6084 144.515 2.37012C145.979 3.10254 147.166 4.12793 148.074 5.44629C149.012 6.73535 149.48 8.43457 149.48 10.5439C149.48 11.3057 149.422 12.0674 149.305 12.8291C149.188 13.5908 149.012 14.3379 148.777 15.0703H140.208ZM192.415 0.612305C192.093 0.788086 191.668 1.24219 191.141 1.97461C190.613 2.67773 190.013 3.57129 189.339 4.65527C188.665 5.73926 187.933 6.95508 187.142 8.30273C186.38 9.62109 185.604 10.998 184.812 12.4336C184.021 13.8398 183.245 15.2607 182.483 16.6963C181.751 18.1025 181.062 19.4209 180.418 20.6514C179.773 21.8525 179.202 22.9219 178.704 23.8594C178.235 24.7676 177.884 25.4561 177.649 25.9248L175.408 30.2754C175.174 30.7441 174.939 31.2129 174.705 31.6816C174.471 32.1211 174.207 32.5605 173.914 33C173.533 33.0586 173.167 33.0732 172.815 33.0439C172.464 33.0146 172.098 33 171.717 33H166.399C166.077 32.3848 165.608 31.4766 164.993 30.2754C164.378 29.0449 163.66 27.6533 162.84 26.1006C162.049 24.5186 161.17 22.834 160.203 21.0469C159.236 19.2305 158.255 17.4141 157.259 15.5977C156.292 13.7812 155.325 12.0234 154.358 10.3242C153.392 8.5957 152.498 7.05762 151.678 5.70996C150.828 4.33301 150.081 3.19043 149.437 2.28223C148.792 1.37402 148.294 0.817383 147.942 0.612305C149.554 0.612305 151.165 0.626953 152.776 0.65625C154.388 0.65625 156.014 0.641602 157.654 0.612305C157.566 0.670898 157.508 0.758789 157.479 0.875977C157.479 0.963867 157.479 1.05176 157.479 1.13965C157.479 1.75488 157.728 2.73633 158.226 4.08398C158.753 5.43164 159.427 6.96973 160.247 8.69824C161.067 10.4268 161.976 12.2432 162.972 14.1475C163.968 16.0518 164.935 17.8828 165.872 19.6406C166.81 21.3691 167.659 22.9219 168.421 24.2988C169.212 25.6758 169.812 26.7012 170.223 27.375C170.604 26.7012 171.189 25.6758 171.98 24.2988C172.771 22.9219 173.636 21.3691 174.573 19.6406C175.511 17.8828 176.478 16.0518 177.474 14.1475C178.47 12.2432 179.363 10.4268 180.154 8.69824C180.975 6.96973 181.648 5.43164 182.176 4.08398C182.703 2.73633 182.967 1.75488 182.967 1.13965C182.967 1.05176 182.952 0.963867 182.923 0.875977C182.923 0.758789 182.879 0.670898 182.791 0.612305C184.402 0.641602 185.999 0.65625 187.581 0.65625C189.192 0.626953 190.804 0.612305 192.415 0.612305Z" fill="white"/>
</svg>
